# xmcd
#
# Track frame offsets: 
#        150
#        12124
#        22927
#        32101
#        39819
#        49561
#        58306
#        75412
#        88986
#        103593
#
# Disc length: 1554 seconds
#
# Revision: 0
# Processed by: cddbd v1.5.2PL0 Copyright (c) Steve Scherf et al.
# Submitted via: ExactAudioCopy v0.99pb5
#
DISCID=6c06100a
DTITLE=Cold Hard Cash - A Tribute to Johnny Cash
DYEAR=2007
DGENRE=Country
TTITLE0=Folsom Prison Blues
TTITLE1=I Walk The Line
TTITLE2=Get Rhythm
TTITLE3=Five Feet High and Risin'
TTITLE4=Cry, cry, cry
TTITLE5=I Got Stripes
TTITLE6=Long Black Veil
TTITLE7=Southwind
TTITLE8=Ghost Riders in The Sky
TTITLE9=Remember The Alamo
EXTD=
EXTT0=
EXTT1=
EXTT2=
EXTT3=
EXTT4=
EXTT5=
EXTT6=
EXTT7=
EXTT8=
EXTT9=
PLAYORDER=
